<?xml version="1.0" encoding="utf-8"?>
<!-- Generator: Adobe Illustrator 18.1.0, SVG Export Plug-In . SVG Version: 6.00 Build 0)  -->
<svg version="1.1" id="Layer_1" xmlns="http://www.w3.org/2000/svg" xmlns:xlink="http://www.w3.org/1999/xlink" x="0px" y="0px"
	 viewBox="0 0 417.2 416.4" enable-background="new 0 0 417.2 416.4" xml:space="preserve">
<g>
	<circle fill="none" stroke="#E03529" stroke-width="7" stroke-miterlimit="10" cx="207.9" cy="210.2" r="200"/>
	<g>
		<path fill="#E03529" d="M239.9,82.7c-2.6,1.8-5.5,4.3-8.3,6.9c-3.2,3-6.1,6.2-7.8,8.5c-1.5,2-4.3,5-5.4,6.2
			c-3.3,3.3-6.1,3.2-8.5,1.7c-8.4-5.5-16.2-36.5-45.4-39.9c-2.8-0.3-5.7-1.3-9.2-1.5c-15.7-1.1-44,1.1-62.3,24.6
			c-6.6,8.5-11.9,19.9-14.8,34.9c-7.9,35.6,1.9,63.4,8.3,80.5c31.2,83.8,136.6,183.9,138.6,182.9l0,0c0,0.4,0.3,0.7,0.6,0.9
			c2.1,1.4,4.1,3,6.5,3.8c1,0.3,1.9,0.3,2.7-0.3c0.3-0.2,0.5-0.4,0.8-0.6c1.4-0.8,2.6-1.8,2.8-3.5c0-0.2,0.1-0.3,0.2-0.5
			c0.4-0.7,0.5-1.5,0.7-2.3c0.1-0.7,0.3-1.5,0.3-2.2c-0.1-1.8,0.1-3.7-1.4-5.1c-0.3-0.3-0.4-0.6-0.4-1c0-0.7-0.1-1.4-0.1-2
			c0.1-2.1-0.1-4.2-0.5-6.3c-0.1-0.3-0.2-0.6-0.1-0.8c0.3-1.9-0.4-3.6-0.8-5.4c-0.3-1.5-0.9-3-1-4.5c0-0.4-21.9-51.9-23-78.8
			c-0.5-10.9,7.3-13.1,13.9-12.3c4,0.5,12.3,4.6,13.9,14.9c1.2,7.4-5.3,11.3-5.8,11.8c-0.9,0.9-2.1,1.4-3.4,1.3
			c-2.3-0.1-4.1-1.4-5.7-2.8c-1.6-1.3-3.5-2-5.4-2.7l0,0c-0.3-0.2-0.6-0.4-0.9-0.6c-0.3-0.2-0.5-0.1-0.4,0.3c-0.1,0-0.2,0-0.3,0
			c-0.2,0.2,0,0.4,0.2,0.5c0.1-0.1,0.2-0.1,0.3-0.2c0.7,0.4,0.6,1.3,0.9,1.9c0,0.1,0,0.3-0.1,0.3c-0.6,0-0.3,0.4-0.3,0.6
			c0,0.5,0.3,0.9,0.5,1.3c0.5,1.1,1.2,2,1.4,3.2c0,0.3,0.3,0.5,0.5,0.7c0.2,0.2,0.1,0.5,0.1,0.8c-0.1-0.1-0.1-0.2-0.2-0.3
			c-0.5,1-0.5,1,0.6,1.5c-0.1-0.2-0.1-0.4-0.1-0.7c0.1,0.1,0.1,0.1,0.3,0.2l0,0c0.8,0.2,1,1.2,1.8,1.4c0.6,0.2,0.8,0.6,1,1.1
			c-0.3-0.2-0.7-0.5-1-0.7c-0.7-0.3-1-1.2-1.9-1.3c0.4,0.5,0.8,0.9,1.2,1.4h0l0,0c0.6,0.3,0.6,0.3,0.7,0.9c0,0.1,0.1,0.2,0.2,0.3
			c0.2,0.2,0.5,0.5,0.9,0.5c0.4,0.5,1.1,0.6,1.5,1.2c0.1-0.5-0.2-0.7-0.6-0.9c-0.3-0.1-0.6-0.2-0.9-0.3c0-0.2,0.2-0.3,0.4-0.3
			c0.5,0.2,1,0.3,1.2,1c0.2,0.2,5.2,0.5,10.1-0.5c2.4-0.5,9.6-4,11.7-11.9c1.1-4.1,2.1-9,1.6-13.9c-1-10.2-16.2-23.3-32.4-18.9
			c-18.2,4.9-5.9-2.3-12.2-0.5c-3.2,0.9-2.3,1-4.6,4.3c-3.8,5.3-3.7,19.4,1.3,36.6c7.4,25.8,24.5,68.4,21.2,66.3
			c-0.5-0.2-0.8-0.5-1.1-0.8c-0.5-0.5-31.3-31.7-59.6-71.3c-12.1-16.9-106.2-125.1-51.4-191.1c4.3-5.1,10.5-10.4,15.9-13.6
			c6.9-4.1,22-5.4,28.4-4.2c19.6,3.7,24.7,12.2,33.4,24.2c1.3,1.8,8.6,11.7,18.1,14.5c2.6,0.8,5.4,1.3,8.3,1.1
			c8.5-0.7,14.6-8.3,16-10.2c7.8-10.9,16.2-18.8,26-21.8c24.1-7.3,49.9,6.3,55.9,23.3c9.4,26.8-9.9,48-17.4,48.7
			c-8.7,0.9-8.3,7.4-9.3,6c-0.1-0.1-0.7-1-1.4-2c-0.8-1.1-1.6-2.3-1.7-2.4c-0.1-0.1-0.2-0.2-0.3-0.2c-0.1,0-0.1,0-0.2-0.1
			c-0.4-0.4-1-0.6-1.6-0.8c-0.8-0.2-1.6-0.1-2.3-0.5c-0.2-0.1-0.4,0-0.5,0.1c-0.5,0.7-1.3,1-2,1.6c-0.1,0-0.1,0-0.2,0
			c-0.2,0-0.4,0.1-0.5,0.3c0,0,0,0.1,0,0.1c-0.1,0.2-0.1,0.5-0.1,0.8c0,0,0-0.1,0.1-0.1v0c0,0.1,0,0.1-0.1,0.1l0,0v0
			c-0.5,1-0.7,2.2-0.8,3.3c0.1,0.1,0.2,0.1,0.2,0.2l0,0c0.1,0.3,0.3,0.6,0.5,0.8v0c0.1,0.4,0.4,0.7,0.7,1c0.6,1.1,1.4,2.1,2.3,3l0,0
			c1,1.5,1.9,2.9,2.9,4.4c0.4,0.6,0.4,1.1,0.1,1.8c-1.2,2.5-2.3,5.1-3.4,7.7c-1.8,3.9-4,7.6-6.6,11c-0.2,0.3-0.5,0.5-0.5,0.9
			c0.6,0,0.7-0.6,1.3-0.6c0,0.4-0.3,0.6-0.4,0.8c-0.4,0.7-0.3,0.8,0.5,0.8c0.1,0,0.2-0.1,0.3,0.1c-0.2,1-0.5,2.1-0.8,3.2
			c-0.1,0.3-0.2,0.6-0.1,0.8c0.4,0.6,0.1,1,0,1.5c-0.5,0.7-0.7,1.5-1,2.2c-0.2,0.5,0.1,1,0.5,1.2c0.6,0.3,0.7-0.1,0.8-0.5
			c0.2-0.3,0.3-0.7,0.5-1.1c0.1-0.3,0.4-0.8,0.5-0.7c0.3,0.3,0.5,0.1,0.7,0.1c0.2,0.1,0.6,0.2,1,0.6c0.3,0.3,10.3-13.8,10.8-15
			c0.3-0.7,1.2-2.9,1-3.3c0.1-0.1,0.1-0.2,0.2-0.3c0.3-0.2,0.3-0.5,0.4-0.9l0,0c0.2-0.1,0.3-0.5,0.6-0.1c0.3,0.3,0.4,0.8,0.8,1.1
			l0,0c3.2,5.1,6.4,10.2,9.5,15.4c1.9,3.2,3.7,6.4,5.9,9.4c0.7,1,1.5,2,2.1,3c0.3,0.5,0.4,1.1,0.7,1.7c1.2,2.1,2.6,4.1,3.4,6.4
			c0.1,0.2,0.3,0.3,0.4,0.4c0.4,0.8,1.4,1.2,1.5,2.1c0.1,0.6,0.5,1,1,1.2c1,1.1,1.6,2.6,2.9,3.5c0.6,0.2,1,0.5,1.2,1.1
			c0.1,0.3,0.3,0.5,0.5,0.7c1,1.2,2.3,2.1,3.5,3.1c0.1,0.5,6.8,3,7.1,3c0.9,0,14.7,1,14-16c0-0.8,0.1-11.1-1.5-17.2
			c-0.4-1.6-0.9-3.2-1.4-4.7c-0.2-0.7-0.5-1.3-0.9-1.9l0,0l0,0c0-0.2-0.1-0.4-0.1-0.6h0c-0.2-0.5,0-1.2-0.6-1.4l0,0l0,0
			c-0.2-0.2-0.2-0.4-0.2-0.6l0,0c0.2-0.7-0.3-1.3-0.6-1.9c-0.1-0.3-0.4-0.3-0.6-0.2c-0.3,0.2-1-0.4-0.9,0
			c3.9,11.2,4.5,37.2-4.5,30.3c-14.7-11.2-30.8-32.7-35.2-44.6c-5.5-14.8,12.8,2.6,29.1-34.7c13.7-31.2-9.4-70.2-43.1-75
			C279.5,72.2,256.5,71,239.9,82.7z M62.3,128.4L62.3,128.4L62.3,128.4L62.3,128.4z M207.7,303.8 M207.1,301.9
			c0-0.2-0.1-0.4-0.1-0.7c0,0.1,0,0.1,0.1,0.2 M212,324.8c0,0,0.3,0,0.4,0C212.3,324.9,212.1,324.9,212,324.8z M207.9,292.1
			c0,0,0-0.1,0-0.1c0.1,0,0.2,0.1,0.3,0.1c0,0,0,0-0.1,0.1C208,292.1,207.9,292.1,207.9,292.1z M230.6,347.8
			C230.6,347.8,230.6,347.8,230.6,347.8C230.6,347.8,230.6,347.8,230.6,347.8C230.6,347.8,230.6,347.8,230.6,347.8L230.6,347.8z
			 M223.7,337.2C223.7,337.2,223.7,337.2,223.7,337.2C223.7,337.2,223.6,337.2,223.7,337.2C223.6,337.2,223.7,337.2,223.7,337.2z
			 M213.7,330 M200.9,116.5c-0.1,0.2-0.2,0.3-0.3,0.4C200.7,116.8,200.8,116.7,200.9,116.5z M329.1,50.1
			C329.1,50.1,329.1,50.1,329.1,50.1C329.1,50.1,329.1,50.1,329.1,50.1C329.1,50.1,329.1,50.1,329.1,50.1
			C329.1,50.1,329.1,50.1,329.1,50.1z M244.3,44.9L244.3,44.9C244.3,44.9,244.3,44.9,244.3,44.9C244.3,44.9,244.3,44.9,244.3,44.9
			C244.3,44.9,244.3,44.9,244.3,44.9z M244.3,44.9L244.3,44.9C244.3,44.9,244.3,44.9,244.3,44.9L244.3,44.9
			C244.3,44.9,244.3,44.9,244.3,44.9z M206.7,122 M200.5,117C200.5,117,200.5,117,200.5,117C200.5,117,200.5,117,200.5,117
			L200.5,117z M300.3,154.8L300.3,154.8L300.3,154.8C300.3,154.8,300.3,154.8,300.3,154.8C300.3,154.8,300.3,154.8,300.3,154.8
			C300.3,154.8,300.3,154.8,300.3,154.8z M241.2,31.6 M122.9,43.9C123,43.9,123,43.9,122.9,43.9L122.9,43.9L122.9,43.9z M65.4,83.9
			c0,0,0-0.1,0-0.1C65.5,83.8,65.4,83.9,65.4,83.9L65.4,83.9z M308.9,24.4C309,24.4,309,24.5,308.9,24.4
			C309,24.5,309,24.4,308.9,24.4z M320.5,40.1"/>
		<path fill="#E03529" d="M317.8,235.9"/>
		<path fill="#E03529" d="M299,302.8c0.8,1.4,1.1,0.1,2.1,0.3c0.8,0.6,4.7,0.7,5.3,0.3c2.6-1.7,8.5-9.5,7.4-10
			c-15.2-6.5-26-39.9-26-39.9c-1.4-2.4-2.3-5.1-3.7-7.5c-1.7-3,1.1-5.4,3.5-6.7c1.4-0.8,6-0.3,8,1.5c3.3,3.1,6.7,7.8,7.6,8.5
			c0.8,0.7,2.5,1.6,2.5,1.6c0.1-0.4,1.9-2.3,2.3-2.4c0.6,0.5,4.1,0.1,4.2-0.1c0.5-0.3,0.3,0.2,0,0c-2.3-2.8,3.1-0.1,3.5-1.3
			c0-0.1-0.3-1.7-0.2-2.1c0.6-2-4.5-6.2-10.9-13.5c-5.2-5.9-7.5-7.9-13.6-7.3c0,0-11.5-2-14.2,4.8c0.6,0.3-0.4,2.6-1.2,3.6
			c-1,0.9-2.1,1.4-1.7,2.4l0,0c-2.6,0.1-4.3,1.6-5.4,3.8c-0.9,1.7-0.9,3.5,0.1,5.2c0.2,0.5,0.3,1,0.7,1.4c0,0.4,0.3,0.7,0.6,0.9
			c0.6,1,1.1,2,1.7,3v0c0,0.3,0.1,0.6,0.3,0.8c0.6,0.5,0.8,1.3,0.8,2c0.1,2,6.2,14.7,6.2,14.7c0.1,0.2,0.1,0.5,0.2,0.5
			c0.7-0.2,0.8,0.7,1.4,0.7c0.2,0,0.7,2.3,1.1,3.1c0.7,0.4,0.4,1.4,1,1.9h0c1.2,2.3,2.5,4.6,3.6,6.9c1.2,2.6,2.6,5.1,3.7,7.7
			c0.1,0.3,0.3,0.6,0.5,0.8c1.3,1.9,2.2,4,3.3,6c0.6,1.9,1.8,3.5,2.7,5.3 M295.7,308.8c-0.7,0.5-1.5,0.9-1.9,1.9
			c-0.5,1-0.9,1.9-1,2.1c-0.3,0.2-0.5,0.5-0.5,0.9c-0.3,0.5-0.6,1-1,1.5c-0.6,0.8-1.5,1.1-2.2,1.7c-0.7,0-1.3-0.3-1.8-0.8
			c-0.9-1-1.9-1.9-2.6-3.1c-1-1.7-3.8-6.1-4.4-6.3c-1-0.3-2-0.5-3-0.9c-0.8-0.3-1.3-0.8-1.7-1.7c-1.4-3.6-7.3-2.8-7.5-1.9l0,0
			c-0.4,0.6-0.7,1.3-1.1,1.9c-0.6,0.8-1,1.8-1.4,2.7c-0.5,1.2-0.5,2.7-1.4,3.7c-0.3,0.3-0.3,0.9-0.2,1.4c0,1,0.1,2,0.2,2.9h0h0
			c-0.3,0.5-0.9,0.6-1.3,1c-0.1,0,1.8,5.2,1.7,5.2c-4.7,1.9-9.2,3.3-11.9,5.7c-5.3,4.6-8,13.6-8.1,15.7c-0.1,6.4,1.6,10.9,4,14
			c5.2,6.6,13.7,7.9,23-1.4c4.3-4.3,4.6-12,4.6-21.2c0.3,0,0.2-1.5,0.2-2.1c0-0.2,0.2-3.3,0-3.7c-0.1-0.3,0-3.3,0-4.5c0,0,0,0,0-0.1
			c0.1,0,0.2,0,0.3,0c0.3,0.6,8.5,7.9,8.7,7.7c0.3,0.4,0.7,0.7,1.2,0.7c0.2,0.2,0.4,0.2,0.6,0.3c0.2,0.3,0.5,0.4,0.9,0.4
			c5,1.1,7.3-17.7,8.2-23.2 M267.9,338.7c-0.2,2.7-0.6,5.1-0.7,5.2c-2.3,10.2-10.7,8.9-13,6.1c-3.1-3.9-3.2-12.8,2.2-16.5
			C264.4,328,268.4,329.7,267.9,338.7z"/>
	</g>
</g>
</svg>
